<?xml version="1.0" standalone="no"?>
<!DOCTYPE svg PUBLIC "-//W3C//DTD SVG 20010904//EN"
 "http://www.w3.org/TR/2001/REC-SVG-20010904/DTD/svg10.dtd">
<svg version="1.0" xmlns="http://www.w3.org/2000/svg"
 width="192.000000pt" height="48.000000pt" viewBox="0 0 192.000000 48.000000"
 preserveAspectRatio="xMidYMid meet">

<g transform="translate(0.000000,48.000000) scale(0.100000,-0.100000)"
fill="#000000" stroke="none">
<path d="M204 405 c-40 -56 -62 -66 -84 -40 -14 17 -40 20 -40 5 0 -6 11 -22
25 -36 28 -28 33 -64 10 -64 -8 0 -20 9 -27 20 -13 21 -48 28 -48 9 0 -6 13
-24 30 -41 28 -28 30 -34 30 -109 l0 -79 65 0 65 0 0 45 c0 32 4 45 14 45 17
0 26 -22 26 -61 0 -29 0 -29 60 -29 l60 0 0 79 c0 75 2 81 30 109 17 17 30 35
30 41 0 19 -35 12 -48 -9 -7 -11 -19 -20 -27 -20 -23 0 -18 36 10 64 14 14 25
30 25 36 0 15 -26 12 -40 -5 -22 -26 -44 -16 -84 40 -22 30 -40 55 -41 55 -1
0 -19 -25 -41 -55z m60 -30 l16 -25 -35 0 -35 0 16 25 c9 14 18 25 19 25 1 0
10 -11 19 -25z m56 -85 c0 -18 -7 -20 -75 -20 -68 0 -75 2 -75 20 0 18 7 20
75 20 68 0 75 -2 75 -20z m40 -120 l0 -70 -30 0 c-27 0 -30 3 -30 30 0 32 -30
70 -55 70 -25 0 -55 -38 -55 -70 0 -27 -3 -30 -30 -30 l-30 0 0 70 0 70 115 0
115 0 0 -70z"/>
<path d="M642 308 c-26 -13 -39 -54 -25 -77 5 -9 29 -26 54 -38 48 -23 57 -46
22 -51 -13 -2 -23 1 -23 7 0 6 -13 11 -30 11 -36 0 -38 -12 -8 -40 46 -43 138
-14 138 43 0 27 -19 46 -72 70 -26 11 -36 21 -32 32 7 18 25 20 41 4 6 -6 23
-9 39 -7 l29 3 -27 28 c-29 29 -65 34 -106 15z"/>
<path d="M1440 246 c0 -79 14 -120 46 -135 33 -15 59 -14 93 4 37 18 41 31 41
121 0 72 -1 74 -25 74 -24 0 -25 -2 -25 -75 0 -61 -3 -76 -17 -83 -20 -10 -44
-5 -55 12 -4 6 -8 41 -8 79 0 65 -1 67 -25 67 -24 0 -25 -2 -25 -64z"/>
<path d="M809 248 c5 -13 21 -50 34 -82 25 -60 25 -60 6 -103 l-18 -43 28 0
c25 0 30 7 64 88 19 48 43 104 51 125 l16 37 -30 0 c-17 0 -30 -5 -30 -12 0
-7 -9 -31 -19 -53 l-18 -40 -17 53 c-16 47 -21 52 -47 52 -26 0 -28 -2 -20
-22z"/>
<path d="M1030 184 c0 -82 0 -84 25 -84 23 0 24 4 27 63 3 59 4 62 28 62 24 0
25 -3 28 -62 3 -59 4 -63 27 -63 24 0 25 2 25 68 0 88 -12 100 -97 100 l-63 0
0 -84z"/>
<path d="M1260 250 c-31 -31 -28 -102 6 -129 36 -28 85 -27 112 2 12 13 22 26
22 30 0 11 -55 8 -66 -3 -20 -20 -44 0 -44 36 0 39 22 54 51 36 23 -15 59 -16
59 -2 0 24 -41 50 -80 50 -27 0 -47 -7 -60 -20z"/>
<path d="M1670 145 l0 -125 25 0 c23 0 25 3 25 50 0 47 11 63 25 40 13 -20 63
-11 84 16 57 73 -12 175 -90 134 -13 -7 -19 -7 -19 0 0 5 -11 10 -25 10 l-25
0 0 -125z m118 73 c16 -16 15 -53 -3 -68 -18 -15 -52 -4 -60 20 -13 43 33 78
63 48z"/>
</g>
</svg>
